<svg xmlns="http://www.w3.org/2000/svg" xmlns:xlink="http://www.w3.org/1999/xlink" version="1.1" x="0px" y="0px" viewBox="0 0 100 125" enable-background="new 0 0 100 100" xml:space="preserve"><path d="M49.831,97.208c-9.381,0-25.191-0.139-27.048-1.06l-0.002,0.004c-0.833-0.477-1.008-1.074-1.008-1.492  c0-0.918,0.839-1.444,1.008-1.541l0.23-0.132h0.266c16.468,0,23.303-5.47,23.303-8.397V69.17c-0.472-0.166-1.408-0.384-2.253-0.58  c-6.598-1.53-22.05-5.114-22.05-23.207c0-9.391,2.977-17.685,5.369-24.35c1.466-4.085,2.732-7.613,2.732-9.998  c0-4.459-0.782-5.73-0.79-5.742l-0.904-1.411L30.33,3.72c0.123-0.009,12.33-0.928,19.5-0.928c7.168,0,19.711,0.918,19.837,0.928  l1.861,0.137L70.384,5.33l0,0c0.004,0-0.762,1.289-0.762,5.705c0,2.385,1.267,5.913,2.732,9.998c2.393,6.665,5.37,14.959,5.37,24.35  c0,18.093-15.452,21.677-22.05,23.207c-0.846,0.196-1.782,0.414-2.254,0.58v15.42c0,2.928,6.836,8.397,23.304,8.397h0.266  l0.23,0.132c0.169,0.097,1.008,0.623,1.008,1.541c0,0.418-0.175,1.016-1.008,1.492C76.061,96.813,65.821,97.208,49.831,97.208z   M28.186,94.815c3.631,0.201,10.114,0.393,21.645,0.393c11.561,0,18.138-0.197,21.851-0.402  c-13.931-1.04-20.261-6.339-20.261-10.216V68.711c0-1.188,1.191-1.464,3.802-2.069c6.654-1.543,20.502-4.755,20.502-21.259  c0-9.042-2.912-17.156-5.252-23.674c-1.593-4.437-2.851-7.941-2.851-10.674c0-2.669,0.265-4.366,0.547-5.416  C64.734,5.383,55.54,4.792,49.83,4.792c-5.692,0-14.627,0.587-18,0.825c0.283,1.05,0.548,2.747,0.548,5.418  c0,2.733-1.258,6.237-2.85,10.674c-2.339,6.519-5.251,14.632-5.251,23.674c0,16.504,13.847,19.716,20.501,21.259  c2.61,0.605,3.802,0.882,3.802,2.069V84.59C48.58,88.479,42.209,93.799,28.186,94.815z"/><path d="M27.514,43.943c0,17.386,17.713,18.116,20.161,19.342h4.65c2.448-1.227,20.16-1.956,20.16-19.342  c0-10.365-5.399-19.3-7.104-25.225c0,0-3.347-1.93-15.556-0.942c-2.565,0.207-15.207,0.942-15.207,0.942  C32.913,24.643,27.514,33.578,27.514,43.943z"/></svg>
